<svg width="1992" height="920" fill="none" xmlns="http://www.w3.org/2000/svg"><g clip-path="url(#clip0_0_7417)"><path fill="#fff" d="M0 0h1992v920H0z"/><path fill="#0C66FF" d="M0 0h1992v920H0z"/><path opacity=".24" fill-rule="evenodd" clip-rule="evenodd" d="M297 126v-8h8v8h-8zm33 0v-8h8v8h-8zm33-8v8h8v-8h-8zm33 8v-8h8v8h-8zm33-8v8h8v-8h-8zm33 8v-8h8v8h-8zm33-8v8h8v-8h-8zm33 8v-8h8v8h-8zm33-8v8h8v-8h-8zm33 8v-8h8v8h-8zm33-8v8h8v-8h-8zm33 8v-8h8v8h-8zm33-8v8h8v-8h-8zm33 8v-8h8v8h-8zm33-8v8h8v-8h-8zm33 8v-8h8v8h-8zm33-8v8h8v-8h-8zm33 8v-8h8v8h-8zm33-8v8h8v-8h-8zm33 8v-8h8v8h-8zm33-8v8h8v-8h-8zm33 8v-8h8v8h-8zm33-8v8h8v-8h-8zm33 8v-8h8v8h-8zm33-8v8h8v-8h-8zm33 8v-8h8v8h-8zm33-8v8h8v-8h-8zm33 8v-8h8v8h-8zm33-8v8h8v-8h-8zm33 8v-8h8v8h-8zm33-8v8h8v-8h-8zm33 8v-8h8v8h-8zm33-8v8h8v-8h-8zm33 8v-8h8v8h-8zm33-8v8h8v-8h-8zm33 8v-8h8v8h-8zm33-8v8h8v-8h-8zm33 8v-8h8v8h-8zm33-8v8h8v-8h-8zm33 8v-8h8v8h-8zm33-8v8h8v-8h-8zm33 8v-8h8v8h-8zm33-8v8h8v-8h-8zM297 295v-8h8v8h-8zm33 0v-8h8v8h-8zm33-8v8h8v-8h-8zm33 8v-8h8v8h-8zm33-8v8h8v-8h-8zm33 8v-8h8v8h-8zm33-8v8h8v-8h-8zm33 8v-8h8v8h-8zm33-8v8h8v-8h-8zm33 8v-8h8v8h-8zm33-8v8h8v-8h-8zm33 8v-8h8v8h-8zm33-8v8h8v-8h-8zm33 8v-8h8v8h-8zm33-8v8h8v-8h-8zm33 8v-8h8v8h-8zm33-8v8h8v-8h-8zm33 8v-8h8v8h-8zm33-8v8h8v-8h-8zm33 8v-8h8v8h-8zm33-8v8h8v-8h-8zm33 8v-8h8v8h-8zm33-8v8h8v-8h-8zm33 8v-8h8v8h-8zm33-8v8h8v-8h-8zm33 8v-8h8v8h-8zm33-8v8h8v-8h-8zm33 8v-8h8v8h-8zm33-8v8h8v-8h-8zm33 8v-8h8v8h-8zm33-8v8h8v-8h-8zm33 8v-8h8v8h-8zm33-8v8h8v-8h-8zm33 8v-8h8v8h-8zm33-8v8h8v-8h-8zm33 8v-8h8v8h-8zm33-8v8h8v-8h-8zm33 8v-8h8v8h-8zm33-8v8h8v-8h-8zm33 8v-8h8v8h-8zm33-8v8h8v-8h-8zm33 8v-8h8v8h-8zm33-8v8h8v-8h-8zM297 625v8h8v-8h-8zm33 0v8h8v-8h-8zm33 8v-8h8v8h-8zm33-8v8h8v-8h-8zm33 8v-8h8v8h-8zm33-8v8h8v-8h-8zm33 8v-8h8v8h-8zm33-8v8h8v-8h-8zm33 8v-8h8v8h-8zm33-8v8h8v-8h-8zm33 8v-8h8v8h-8zm33-8v8h8v-8h-8zm33 8v-8h8v8h-8zm33-8v8h8v-8h-8zm33 8v-8h8v8h-8zm33-8v8h8v-8h-8zm33 8v-8h8v8h-8zm33-8v8h8v-8h-8zm33 8v-8h8v8h-8zm33-8v8h8v-8h-8zm33 8v-8h8v8h-8zm33-8v8h8v-8h-8zm33 8v-8h8v8h-8zm33-8v8h8v-8h-8zm33 8v-8h8v8h-8zm33-8v8h8v-8h-8zm33 8v-8h8v8h-8zm33-8v8h8v-8h-8zm33 8v-8h8v8h-8zm33-8v8h8v-8h-8zm33 8v-8h8v8h-8zm33-8v8h8v-8h-8zm33 8v-8h8v8h-8zm33-8v8h8v-8h-8zm33 8v-8h8v8h-8zm33-8v8h8v-8h-8zm33 8v-8h8v8h-8zm33-8v8h8v-8h-8zm33 8v-8h8v8h-8zm33-8v8h8v-8h-8zm33 8v-8h8v8h-8zm33-8v8h8v-8h-8zm33 8v-8h8v8h-8zM297 464v-8h8v8h-8zm33 0v-8h8v8h-8zm33-8v8h8v-8h-8zm33 8v-8h8v8h-8zm33-8v8h8v-8h-8zm33 8v-8h8v8h-8zm33-8v8h8v-8h-8zm33 8v-8h8v8h-8zm33-8v8h8v-8h-8zm33 8v-8h8v8h-8zm33-8v8h8v-8h-8zm33 8v-8h8v8h-8zm33-8v8h8v-8h-8zm33 8v-8h8v8h-8zm33-8v8h8v-8h-8zm33 8v-8h8v8h-8zm33-8v8h8v-8h-8zm33 8v-8h8v8h-8zm33-8v8h8v-8h-8zm33 8v-8h8v8h-8zm33-8v8h8v-8h-8zm33 8v-8h8v8h-8zm33-8v8h8v-8h-8zm33 8v-8h8v8h-8zm33-8v8h8v-8h-8zm33 8v-8h8v8h-8zm33-8v8h8v-8h-8zm33 8v-8h8v8h-8zm33-8v8h8v-8h-8zm33 8v-8h8v8h-8zm33-8v8h8v-8h-8zm33 8v-8h8v8h-8zm33-8v8h8v-8h-8zm33 8v-8h8v8h-8zm33-8v8h8v-8h-8zm33 8v-8h8v8h-8zm33-8v8h8v-8h-8zm33 8v-8h8v8h-8zm33-8v8h8v-8h-8zm33 8v-8h8v8h-8zm33-8v8h8v-8h-8zm33 8v-8h8v8h-8zm33-8v8h8v-8h-8zM297 794v8h8v-8h-8zm33 0v8h8v-8h-8zm33 8v-8h8v8h-8zm33-8v8h8v-8h-8zm33 8v-8h8v8h-8zm33-8v8h8v-8h-8zm33 8v-8h8v8h-8zm33-8v8h8v-8h-8zm33 8v-8h8v8h-8zm33-8v8h8v-8h-8zm33 8v-8h8v8h-8zm33-8v8h8v-8h-8zm33 8v-8h8v8h-8zm33-8v8h8v-8h-8zm33 8v-8h8v8h-8zm33-8v8h8v-8h-8zm33 8v-8h8v8h-8zm33-8v8h8v-8h-8zm33 8v-8h8v8h-8zm33-8v8h8v-8h-8zm33 8v-8h8v8h-8zm33-8v8h8v-8h-8zm33 8v-8h8v8h-8zm33-8v8h8v-8h-8zm33 8v-8h8v8h-8zm33-8v8h8v-8h-8zm33 8v-8h8v8h-8zm33-8v8h8v-8h-8zm33 8v-8h8v8h-8zm33-8v8h8v-8h-8zm33 8v-8h8v8h-8zm33-8v8h8v-8h-8zm33 8v-8h8v8h-8zm33-8v8h8v-8h-8zm33 8v-8h8v8h-8zm33-8v8h8v-8h-8zm33 8v-8h8v8h-8zm33-8v8h8v-8h-8zm33 8v-8h8v8h-8zm33-8v8h8v-8h-8zm33 8v-8h8v8h-8zm33-8v8h8v-8h-8zm33 8v-8h8v8h-8zM1229 28h8v8h-8v-8zm0 33h8v8h-8v-8zm8 33h-8v8h8v-8zm-8 33h8v8h-8v-8zm8 33h-8v8h8v-8zm-8 33h8v8h-8v-8zm8 33h-8v8h8v-8zm-8 33h8v8h-8v-8zm8 33h-8v8h8v-8zm-8 33h8v8h-8v-8zm8 33h-8v8h8v-8zm-8 33h8v8h-8v-8zm8 33h-8v8h8v-8zm-8 33h8v8h-8v-8zm8 33h-8v8h8v-8zm-8 33h8v8h-8v-8zm8 33h-8v8h8v-8zm-8 33h8v8h-8v-8zm8 33h-8v8h8v-8zm-8 33h8v8h-8v-8zm8 33h-8v8h8v-8zm-8 33h8v8h-8v-8zm8 33h-8v8h8v-8zm-8 33h8v8h-8v-8zm8 33h-8v8h8v-8zm-8 33h8v8h-8v-8zm8 33h-8v8h8v-8z" fill="#fff"/><path opacity=".24" fill-rule="evenodd" clip-rule="evenodd" d="M992 28h8v8h-8v-8zm0 33h8v8h-8v-8zm8 33h-8v8h8v-8zm-8 33h8v8h-8v-8zm8 33h-8v8h8v-8zm-8 33h8v8h-8v-8zm8 33h-8v8h8v-8zm-8 33h8v8h-8v-8zm8 33h-8v8h8v-8zm-8 33h8v8h-8v-8zm8 33h-8v8h8v-8zm-8 33h8v8h-8v-8zm8 33h-8v8h8v-8zm-8 33h8v8h-8v-8zm8 33h-8v8h8v-8zm-8 33h8v8h-8v-8zm8 33h-8v8h8v-8zm-8 33h8v8h-8v-8zm8 33h-8v8h8v-8zm-8 33h8v8h-8v-8zm8 33h-8v8h8v-8zm-8 33h8v8h-8v-8zm8 33h-8v8h8v-8zm-8 33h8v8h-8v-8zm8 33h-8v8h8v-8zm-8 33h8v8h-8v-8zm8 33h-8v8h8v-8zm110-858h8v8h-8v-8zm0 33h8v8h-8v-8zm8 33h-8v8h8v-8zm-8 33h8v8h-8v-8zm8 33h-8v8h8v-8zm-8 33h8v8h-8v-8zm8 33h-8v8h8v-8zm-8 33h8v8h-8v-8zm8 33h-8v8h8v-8zm-8 33h8v8h-8v-8zm8 33h-8v8h8v-8zm-8 33h8v8h-8v-8zm8 33h-8v8h8v-8zm-8 33h8v8h-8v-8zm8 33h-8v8h8v-8zm-8 33h8v8h-8v-8zm8 33h-8v8h8v-8zm-8 33h8v8h-8v-8zm8 33h-8v8h8v-8zm-8 33h8v8h-8v-8zm8 33h-8v8h8v-8zm-8 33h8v8h-8v-8zm8 33h-8v8h8v-8zm-8 33h8v8h-8v-8zm8 33h-8v8h8v-8zm-8 33h8v8h-8v-8zm8 33h-8v8h8v-8zM871 28h8v8h-8v-8zm0 33h8v8h-8v-8zm8 33h-8v8h8v-8zm-8 33h8v8h-8v-8zm8 33h-8v8h8v-8zm-8 33h8v8h-8v-8zm8 33h-8v8h8v-8zm-8 33h8v8h-8v-8zm8 33h-8v8h8v-8zm-8 33h8v8h-8v-8zm8 33h-8v8h8v-8zm-8 33h8v8h-8v-8zm8 33h-8v8h8v-8zm-8 33h8v8h-8v-8zm8 33h-8v8h8v-8zm-8 33h8v8h-8v-8zm8 33h-8v8h8v-8zm-8 33h8v8h-8v-8zm8 33h-8v8h8v-8zm-8 33h8v8h-8v-8zm8 33h-8v8h8v-8zm-8 33h8v8h-8v-8zm8 33h-8v8h8v-8zm-8 33h8v8h-8v-8zm8 33h-8v8h8v-8zm-8 33h8v8h-8v-8zm8 33h-8v8h8v-8zM753 28h8v8h-8v-8zm0 33h8v8h-8v-8zm8 33h-8v8h8v-8zm-8 33h8v8h-8v-8zm8 33h-8v8h8v-8zm-8 33h8v8h-8v-8zm8 33h-8v8h8v-8zm-8 33h8v8h-8v-8zm8 33h-8v8h8v-8zm-8 33h8v8h-8v-8zm8 33h-8v8h8v-8zm-8 33h8v8h-8v-8zm8 33h-8v8h8v-8zm-8 33h8v8h-8v-8zm8 33h-8v8h8v-8zm-8 33h8v8h-8v-8zm8 33h-8v8h8v-8zm-8 33h8v8h-8v-8zm8 33h-8v8h8v-8zm-8 33h8v8h-8v-8zm8 33h-8v8h8v-8zm-8 33h8v8h-8v-8zm8 33h-8v8h8v-8zm-8 33h8v8h-8v-8zm8 33h-8v8h8v-8zm-8 33h8v8h-8v-8zm8 33h-8v8h8v-8z" fill="#fff"/><path fill-rule="evenodd" clip-rule="evenodd" d="M708.32 159.039a4 4 0 013.404-4.518l472.356-66.385a3.99 3.99 0 014.51 3.41l93.11 669.559a4.003 4.003 0 01-3.41 4.512l-471.372 66.247a3.998 3.998 0 01-4.517-3.404L708.32 159.039z" fill="#0C66FF"/><path fill-rule="evenodd" clip-rule="evenodd" d="M708.32 159.039a4 4 0 013.404-4.518l472.356-66.385a3.99 3.99 0 014.51 3.41l93.11 669.559a4.003 4.003 0 01-3.41 4.512l-471.372 66.247a3.998 3.998 0 01-4.517-3.404L708.32 159.039z" fill="#fff" fill-opacity=".64"/><path fill-rule="evenodd" clip-rule="evenodd" d="M753 122a4 4 0 014-4h476.99a3.99 3.99 0 014 4.006l-.98 676a4.009 4.009 0 01-4 3.994H757a4 4 0 01-4-4V122z" fill="#fff"/><path fill-rule="evenodd" clip-rule="evenodd" d="M1074.61 582.758l-40.53-14.75-3.42 5.523c-.12.206-13.22 20.521-51.22 6.692l-22.431-8.165a27.893 27.893 0 006.713-10.423c2.688-7.387 2.062-15.183-1.107-21.761 6.656-3.002 12.146-8.571 14.835-15.958 2.689-7.387 2.062-15.183-1.106-21.761 5.683-2.564 10.511-7.003 13.476-12.845 6.614 18.429 21.05 33.904 40.85 41.108l5.45-14.997c-27.06-9.85-41.063-39.881-31.21-66.944v-.001c5.29-14.534-2.23-30.662-16.767-35.952l-1-.364c-3.665-6.853-13.648-28.634-5.809-50.172 7.502-20.611 20.096-23.442 30.796-21.139l1.18 19.57a65.562 65.562 0 007.37 26.51l51.1 88.011 37.15 13.519-34.32 94.299zm-158.003-25.405l-11.826-4.304c-6.263-2.28-9.505-9.231-7.225-15.496 2.28-6.264 9.233-9.506 15.496-7.227l28.446 10.354c6.264 2.28 9.506 9.232 7.226 15.496-2.28 6.266-9.232 9.507-15.496 7.227l-16.621-6.05zm45.846-38.896c-2.28 6.264-9.232 9.505-15.496 7.226l-28.447-10.354-10.021-3.648c-6.266-2.28-9.507-9.232-7.227-15.495 2.28-6.266 9.231-9.507 15.497-7.227l38.468 14.002c6.264 2.28 9.506 9.231 7.226 15.496zm13.729-37.719c-2.28 6.263-9.233 9.505-15.497 7.225l-38.468-14.001-9.942-3.619c-6.264-2.28-9.506-9.232-7.227-15.495 2.281-6.265 9.233-9.506 15.497-7.226l9.942 3.618 38.468 14.002c6.265 2.279 9.507 9.231 7.227 15.496zm-31.966-67.218l38.468 14.001c6.265 2.28 9.507 9.232 7.227 15.497-2.28 6.264-9.233 9.506-15.497 7.226l-38.468-14.001c-6.265-2.28-9.506-9.232-7.226-15.498 2.28-6.264 9.231-9.505 15.496-7.225zm138.464 48.402l-47.94-82.535a49.773 49.773 0 01-5.5-19.935l-1.84-30.384-4.92-1.79c-11.11-4.045-21.96-4.06-31.362-.043-11.093 4.738-19.43 14.594-24.781 29.295-6.58 18.078-3.764 35.645.338 48.181l-17-6.188c-14.534-5.29-30.663 2.231-35.953 16.765a27.881 27.881 0 00-.959 15.894c-10.033 1.333-19.017 8.056-22.712 18.207-3.695 10.151-1.134 21.075 5.695 28.546a27.872 27.872 0 00-9.481 12.792c-3.704 10.176-1.122 21.127 5.745 28.599a27.87 27.87 0 00-9.451 12.768c-5.29 14.534 2.23 30.662 16.764 35.952l11.825 4.304 16.621 6.05 46.212 16.82c37.529 13.657 57.819.102 65.969-8.093l44.2 16.087 45.23-124.294-46.7-16.998z" fill="#000"/></g><defs><clipPath id="clip0_0_7417"><path fill="#fff" d="M0 0h1992v920H0z"/></clipPath></defs></svg>