<svg width="1992" height="920" fill="none" xmlns="http://www.w3.org/2000/svg"><g clip-path="url(#clip0_0_7815)"><path fill="#fff" d="M0 0h1992v920H0z"/><path fill="#46D4E0" d="M0 0h1992v920H0z"/><path fill-rule="evenodd" clip-rule="evenodd" d="M935 546H655v24h280v-24zm788 80H655v24h1068v-24zM655 674h898v24H655v-24zm738 48H655v24h738v-24zm-738 48h898v24H655v-24zm468 48H655v24h468v-24z" fill="#000"/><path fill-rule="evenodd" clip-rule="evenodd" d="M1429.5 536.134L1363 497l66 67.97V566l.5-.515.5.515v-1.03l66-67.97-66.5 39.134zM1676 258.429L1526 171l150 153 150-153-150 87.429zm-370 310.428L1268 546l38 40 38-40-38 22.857z" fill="#fff"/></g><defs><clipPath id="clip0_0_7815"><path fill="#fff" d="M0 0h1992v920H0z"/></clipPath></defs></svg>